<svg id="icon" xmlns="http://www.w3.org/2000/svg" viewBox="0 0 150 150">
  <path d="M113.1 59.2a27.91 27.91 0 0 0-1.78-9.31 19.58 19.58 0 0 0-11.21-11.21 27.91 27.91 0 0 0-9.31-1.78c-4.08-.19-5.39-.23-15.8-.23s-11.72 0-15.8.23a27.91 27.91 0 0 0-9.31 1.78 19.58 19.58 0 0 0-11.21 11.21 27.91 27.91 0 0 0-1.78 9.31c-.19 4.08-.23 5.39-.23 15.8s0 11.72.23 15.8a28 28 0 0 0 1.78 9.31 19.58 19.58 0 0 0 11.21 11.21 27.91 27.91 0 0 0 9.31 1.78c4.08.19 5.39.23 15.8.23s11.72 0 15.8-.23a27.91 27.91 0 0 0 9.31-1.78 19.58 19.58 0 0 0 11.21-11.21 28 28 0 0 0 1.78-9.31c.19-4.08.23-5.39.23-15.8s-.04-11.72-.23-15.8Zm-6.9 31.29a21.06 21.06 0 0 1-1.32 7.12 12.6 12.6 0 0 1-7.27 7.27 21.06 21.06 0 0 1-7.12 1.32c-4 .19-5.25.23-15.49.23s-11.45 0-15.49-.23a21.06 21.06 0 0 1-7.12-1.32 12.6 12.6 0 0 1-7.27-7.27 21.06 21.06 0 0 1-1.32-7.12c-.19-4-.23-5.25-.23-15.49s0-11.45.23-15.49a21.06 21.06 0 0 1 1.32-7.12 12.6 12.6 0 0 1 7.27-7.27 21.06 21.06 0 0 1 7.12-1.32c4-.19 5.25-.23 15.49-.23s11.45 0 15.49.23a21.06 21.06 0 0 1 7.12 1.32 12.6 12.6 0 0 1 7.27 7.27 21.06 21.06 0 0 1 1.32 7.12c.19 4 .23 5.25.23 15.49s-.04 11.45-.23 15.49Z" fill="#ffffff"/>
  <path d="M75 55.32A19.68 19.68 0 1 0 94.68 75 19.68 19.68 0 0 0 75 55.32Zm0 32.46A12.78 12.78 0 1 1 87.78 75 12.78 12.78 0 0 1 75 87.78Zm20.46-37.84a4.6 4.6 0 1 0 4.6 4.6 4.6 4.6 0 0 0-4.6-4.6Z"/>
</svg>
