<svg id="icon" xmlns="http://www.w3.org/2000/svg" viewBox="0 0 200 200">
  <path d="M57.5 113.33c35.6 0 55.07-29.49 55.07-55.06 0-.84 0-1.68-.06-2.51a39.33 39.33 0 0 0 9.66-10 38.72 38.72 0 0 1-11.12 3 19.39 19.39 0 0 0 8.51-10.71 38.75 38.75 0 0 1-12.29 4.7 19.37 19.37 0 0 0-33 17.65A55 55 0 0 1 34.4 40.21a19.38 19.38 0 0 0 6 25.84 19.29 19.29 0 0 1-8.77-2.42v.24a19.37 19.37 0 0 0 15.53 19 19.55 19.55 0 0 1-5.1.68 19 19 0 0 1-3.64-.35 19.36 19.36 0 0 0 18.07 13.42 38.86 38.86 0 0 1-24 8.29 39.25 39.25 0 0 1-4.62-.27 54.81 54.81 0 0 0 29.67 8.69" fill="#ffffff"/>
</svg>
